<svg xmlns="http://www.w3.org/2000/svg" xmlns:svg="http://www.w3.org/2000/svg" id="svg3719" width="297mm" height="210mm" version="1.1" viewBox="0 0 297 210"><metadata id="metadata3716"/><g id="layer1" transform="translate(0,-87)" style="display:inline"><path style="fill:#fff;fill-rule:evenodd;stroke:#000;stroke-width:2;stroke-linecap:butt;stroke-linejoin:miter;stroke-miterlimit:4;stroke-dasharray:none;stroke-opacity:1" id="path3767" d="m 71.371767,252.51948 c 0,0 -7.115557,14.96717 -7.09904,17.52527 0.01702,2.63597 1.781817,6.87272 1.781817,6.87272 0,0 5.472724,2.29091 7.763637,3.56364 2.290906,1.27272 2.832324,3.87373 0.132461,5.13367 -2.699862,1.25993 -13.833711,2.41444 -21.393325,2.59443 -7.559614,0.17999 -13.949286,-0.35998 -16.469159,-1.43993 -2.519868,-1.07994 -3.61001,-2.79787 -3.329829,-5.66971 0.359982,-3.68981 5.126578,-9.18532 6.839651,-11.51941 2.088263,-2.84529 4.863438,-11.06839 4.773441,-15.38817 -0.09,-4.31978 -1.893589,-17.01018 -1.893589,-17.01018"/><path style="fill:none;fill-rule:evenodd;stroke:#000;stroke-width:6;stroke-linecap:round;stroke-linejoin:miter;stroke-miterlimit:4;stroke-dasharray:none;stroke-opacity:1" id="path4593" d="M 97.548218,284.18841 154.67026,125.9591 c 0,0 -3.32845,-7.425 -0.51207,-14.08189 2.81638,-6.65691 4.60862,-10.75348 12.28965,-10.75348 7.68104,0 10.75345,4.86468 11.52155,8.19313 0.76811,3.32845 -3.07241,8.96121 -3.07241,8.96121"/><path style="fill:#fff;fill-rule:evenodd;stroke:#000;stroke-width:2;stroke-linecap:butt;stroke-linejoin:miter;stroke-miterlimit:4;stroke-dasharray:none;stroke-opacity:1" id="path4597" d="m 106.58445,190.1698 17.29548,-0.68959 c 0,0 1.22197,-2.67692 4.11295,-3.35918 2.89097,-0.68226 7.75339,-0.48944 9.56669,5.20908 1.8133,5.69852 -1.96248,12.72712 -5.29464,14.89536 -3.33216,2.16824 -7.78649,1.39251 -10.0077,-0.15691 -2.22121,-1.54942 -3.31971,-3.84138 -3.31971,-3.84138 l -13.58634,-1.14448"/><path style="fill:#fff;fill-rule:evenodd;stroke:#000;stroke-width:2.5;stroke-linecap:butt;stroke-linejoin:miter;stroke-miterlimit:4;stroke-dasharray:none;stroke-opacity:1" id="path4595" d="m 85.006203,180.31451 c 0,0 18.093537,-6.98178 21.352317,-3.36091 3.25879,3.62088 8.13707,19.02558 8.54408,28.62752 0.40701,9.60194 -1.1814,14.02719 -7.99808,20.68437 -6.81669,6.65718 -20.449969,-0.14692 -20.449969,-0.14692 z"/><path style="fill:#fff;fill-rule:evenodd;stroke:#000;stroke-width:3;stroke-linecap:butt;stroke-linejoin:miter;stroke-miterlimit:4;stroke-dasharray:none;stroke-opacity:1" id="path12" d="m 86.799998,215.95383 c 0,0 6.864995,-0.75669 11.454546,0.76364 4.589546,1.52034 11.521186,5.4121 14.890906,8.78182 3.94546,3.94546 7.12419,8.15891 9.92727,8.78182 2.80308,0.6229 7.63637,0.50909 7.63637,0.50909 0,0 2.92726,-4.58183 5.0909,-6.23637 2.16364,-1.65455 5.3201,-3.24375 6.87273,-1.4 1.55264,1.84375 1.64072,7.10265 0.12728,11.70909 -1.51344,4.60644 -6.2922,12.1607 -8.01818,14.89091 -1.72599,2.73021 -4.26948,7.53095 -7.5091,7.89091 -3.23961,0.35996 -7.13009,-3.03748 -11.32727,-3.43636 -4.19719,-0.39889 -11.83636,0.89091 -16.290905,1.27273 -4.454547,0.38182 -21.935211,1.49694 -29.272728,0.12727 C 63.0443,258.23871 49.960354,254.3836 45.181818,250.19019 40.403282,245.99678 37.848146,236.20948 37.545454,229.95383 37.242762,223.69818 38.054545,212.89929 42,204.88111 c 3.945455,-8.01818 11.423787,-14.8733 15.527271,-20.61818 4.454546,-6.23637 11.200001,-14.25455 10.818183,-21.25455 -0.381818,-7 -1.326243,-14.1224 1.018181,-22.01818 2.344423,-7.89577 5.325767,-13.08112 12.727272,-17.05455 7.401505,-3.97343 14.636366,-5.85454 21.763643,-5.6 7.12727,0.25455 13.23765,2.07025 18.58181,7.89091 5.34416,5.82067 8.44905,13.30544 9.18816,24.91636 0.73912,11.61092 -4.35179,24.08365 -10.58816,29.04728 -6.23637,4.96363 -10.30909,6.10909 -16.92727,5.34545"/><path style="fill:#fff;fill-rule:evenodd;stroke:#000;stroke-width:2.5;stroke-linecap:butt;stroke-linejoin:miter;stroke-miterlimit:4;stroke-dasharray:none;stroke-opacity:1" id="path822" d="m 64.527957,191.77406 c 0,0 -4.70909,8.40001 -8.018181,12.72728 -3.309091,4.32727 -8.527273,7.25454 -9.290909,12.34545 -0.605327,4.03552 -0.07798,6.86405 5.090909,9.41818 5.168889,2.55413 13.639603,2.15374 15.909092,-3.18181 2.269489,-5.33555 -1.135309,-5.89393 -0.117126,-10.22121 1.018183,-4.32728 7.880762,-11.79698 10.808033,-14.85152"/><path style="fill:#fff;fill-rule:evenodd;stroke:#000;stroke-width:2;stroke-linecap:butt;stroke-linejoin:round;stroke-miterlimit:4;stroke-dasharray:none;stroke-opacity:1" id="path826" d="m 86.290907,132.08111 c -8.145454,-7.89091 -4.454545,-13.23637 -4.454545,-13.23637 0,0 7.000001,6.87273 11.581819,7.89091"/><ellipse style="fill:#000;fill-opacity:1;stroke:none;stroke-width:15.30501652;stroke-linecap:round;stroke-linejoin:round;stroke-miterlimit:4;stroke-dasharray:none;stroke-dashoffset:0;stroke-opacity:1" id="path828" cx="144.951" cy="116.807" rx="4.508" ry="2.085" transform="matrix(0.9731683,0.23009447,-0.22507129,0.9743423,0,0)"/><path style="fill:none;fill-rule:evenodd;stroke:#000;stroke-width:2;stroke-linecap:butt;stroke-linejoin:miter;stroke-miterlimit:4;stroke-dasharray:none;stroke-opacity:1" id="path830" d="m 107.61251,141.72186 c 0,0 2.80001,2.54545 7.00001,3.81818 4.2,1.27272 8.4,1.14545 8.4,1.14545"/><path style="fill:#000;fill-rule:evenodd;stroke:none;stroke-width:.26458332px;stroke-linecap:butt;stroke-linejoin:miter;stroke-opacity:1" id="path832" d="m 129.10194,162.63187 -6.22092,-7.75086 c 0,0 3.23983,-2.60987 7.19963,-2.24989 3.95979,0.35999 5.17538,1.97801 4.67976,5.30973 -0.24781,1.66586 -1.21626,3.77557 -2.59423,4.52905 -1.37798,0.75348 -3.06424,0.16197 -3.06424,0.16197 z"/><path style="fill:none;fill-rule:evenodd;stroke:#000;stroke-width:2;stroke-linecap:butt;stroke-linejoin:miter;stroke-miterlimit:4;stroke-dasharray:none;stroke-opacity:1" id="path834" d="m 128.67273,166.95383 c -6.87273,-1.90909 -12.98182,1.14546 -12.98182,1.14546"/></g><g id="layer3" style="display:inline"><path style="fill:#fff;fill-rule:evenodd;stroke:#000;stroke-width:2;stroke-linecap:butt;stroke-linejoin:miter;stroke-miterlimit:4;stroke-dasharray:none;stroke-opacity:1" id="path841" d="m 189.12736,115.77631 c 10.44339,-1.14623 18.20321,-4.78024 22.66981,-9.04247 4.4666,-4.26224 11.84434,-13.62739 11.46225,-21.778333 L 205.04717,67.125317 176.13464,96.62022 Z"/><path style="fill:#fff;fill-rule:evenodd;stroke:#000;stroke-width:2;stroke-linecap:butt;stroke-linejoin:miter;stroke-miterlimit:4;stroke-dasharray:none;stroke-opacity:1" id="path839" d="m 194.42389,104.5694 c 2.97477,0.55338 5.37793,4.31819 5.81847,7.38461 0.44055,3.06643 -1.32917,9.97306 -1.32917,9.97306 0,0 7.8555,-5.02125 9.83674,-4.66102 1.98124,0.36023 3.78235,15.12941 3.78235,15.12941 0,0 5.08132,-5.92273 6.9446,-5.16392 1.86327,0.75881 0.0798,4.44347 -1.36113,7.8656 -1.4409,3.42213 -3.98439,7.89788 -6.92791,8.7818 -2.94352,0.88392 -4.73567,-1.73557 -5.45612,-4.07703 -0.72045,-2.34146 -1.84482,-7.76667 -1.84482,-7.76667 0,0 -10.37188,11.33051 -17.1144,13.99225 -6.74251,2.66173 -10.56106,1.47553 -16.2538,-2.55248 -5.69273,-4.02802 -7.33714,-10.16618 -7.51725,-18.82436 -0.18011,-8.65818 4.68292,-28.637871 11.16695,-38.0037 6.48404,-9.36583 19.81233,-20.352668 28.81794,-23.414575 9.00561,-3.061906 24.13502,-5.043137 24.13502,-5.043137 0,0 14.9493,11.887396 15.12942,20.172554 0.18011,8.285158 -1.80112,14.228855 -1.80112,14.228855 0,0 11.35081,8.161553 13.87238,11.223473 2.52157,3.06192 7.20073,8.94912 5.39961,11.4707 -1.80112,2.52158 -4.39355,-0.97891 -8.1759,-3.14027 -3.78235,-2.16135 0.59915,-2.56797 -3.46818,-5.86911 -4.06733,-3.30115 -18.47283,-5.59564 -23.31282,-7.894061 -4.83999,-2.298414 -7.23477,-3.317754 -9.03169,-8.544154"/><path style="fill:#fff;fill-rule:evenodd;stroke:none;stroke-width:.26458332px;stroke-linecap:butt;stroke-linejoin:miter;stroke-opacity:1" id="path845" d="m 171.74144,140.58332 -4.01094,3.05729 -4.26338,-14.30477 1.23413,-3.30973 z"/><path style="fill:#fff;fill-rule:evenodd;stroke:#000;stroke-width:1.5;stroke-linecap:round;stroke-linejoin:round;stroke-miterlimit:4;stroke-dasharray:none;stroke-opacity:1" id="path843" d="m 163.39695,127.75387 c 0,0 -1.65167,10.94696 -1.39695,18.58847 0.25471,7.64151 1.65566,22.03302 2.54717,25.59906 0.89151,-1.91038 1.40094,-3.6934 1.40094,-3.6934 l 1.80076,13.32107 1.86201,-4.20603 1.81365,11.13496 1.27358,-7.25943 4.58491,10.69811 -3.31132,-17.06604 3.0437,1.39939 -5.75371,-11.06254 3.47416,2.91315 c 0,0 -3.94812,-6.94102 -4.71227,-11.908 -0.76415,-4.96698 -0.29564,-13.66527 -0.29564,-13.66527"/><path style="fill:#fff;fill-rule:evenodd;stroke:#000;stroke-width:2;stroke-linecap:butt;stroke-linejoin:miter;stroke-miterlimit:4;stroke-dasharray:none;stroke-opacity:1" id="path847" d="m 234.15625,37.094797 c 9.32609,-2.541271 14.94895,0.79375 18.65312,3.96875 3.70417,3.175 4.76251,10.980207 3.57188,16.668749 -1.19063,5.688542 -5.95312,7.14375 -6.48229,12.567709 -0.52917,5.423959 -1.32293,8.731249 -4.36563,10.186458 -3.04271,1.455208 -6.08542,-2.910416 -8.59896,-7.011458 -2.51354,-4.101042 -5.55625,-3.704167 -9.525,-7.011458 -3.96875,-3.307292 -8.92346,-9.715023 -7.54062,-16.139584 1.38284,-6.42456 4.9614,-10.687895 14.2875,-13.229166 z"/><path style="fill:none;fill-rule:evenodd;stroke:#000;stroke-width:1;stroke-linecap:butt;stroke-linejoin:miter;stroke-miterlimit:4;stroke-dasharray:none;stroke-opacity:1" id="path849" d="m 227.54166,55.086463 c 5.02709,-1.455208 7.27605,-0.661458 8.86355,2.116667 1.5875,2.778125 3.96875,11.641666 3.96875,11.641666 l 5.82083,-1.190625 c 0,0 -1.12448,-6.283854 -0.46302,-11.178645 0.66146,-4.894792 2.84427,-5.88698 5.09323,-6.945313"/><ellipse style="fill:#000;fill-opacity:1;stroke:none;stroke-width:.87335712;stroke-linecap:round;stroke-linejoin:round;stroke-miterlimit:4;stroke-dasharray:none;stroke-dashoffset:0;stroke-opacity:1" id="path851" cx="216.089" cy="120.961" rx="3.952" ry="2.27" transform="matrix(0.97471542,-0.22344989,0.27000025,0.96286025,0,0)"/><ellipse style="fill:#000;fill-opacity:1;stroke:none;stroke-width:1;stroke-linecap:round;stroke-linejoin:round;stroke-miterlimit:4;stroke-dasharray:none;stroke-dashoffset:0;stroke-opacity:1" id="path853" cx="202.496" cy="153.993" rx="1.521" ry="1.257" transform="rotate(-25.325498)"/><ellipse style="fill:#000;fill-opacity:1;stroke:none;stroke-width:1;stroke-linecap:round;stroke-linejoin:round;stroke-miterlimit:4;stroke-dasharray:none;stroke-dashoffset:0;stroke-opacity:1" id="path853-3" cx="238.606" cy="-9.282" rx="1.521" ry="1.257" transform="rotate(15.745178)"/><path style="fill:none;fill-rule:evenodd;stroke:#000;stroke-width:1.5;stroke-linecap:butt;stroke-linejoin:miter;stroke-miterlimit:4;stroke-dasharray:none;stroke-opacity:1" id="path870" d="m 239.68219,77.22183 c 0,0 0.42635,-4.720864 3.92888,-5.270833 3.64498,-0.572335 5.31028,3.628555 5.31028,3.628555"/><path style="fill:none;fill-rule:evenodd;stroke:#000;stroke-width:1;stroke-linecap:butt;stroke-linejoin:miter;stroke-miterlimit:4;stroke-dasharray:none;stroke-opacity:1" id="path872" d="m 241.09495,78.734701 0.88524,-0.974238 -0.0823,1.638679"/><path style="fill:none;fill-rule:evenodd;stroke:#000;stroke-width:1;stroke-linecap:butt;stroke-linejoin:miter;stroke-miterlimit:4;stroke-dasharray:none;stroke-opacity:1" id="path874" d="m 247.74154,78.562258 -0.69194,-1.698479 1.00946,0.550919"/><path style="fill:#fff;fill-rule:evenodd;stroke:#000;stroke-width:2;stroke-linecap:butt;stroke-linejoin:miter;stroke-miterlimit:4;stroke-dasharray:none;stroke-opacity:1" id="path4580" d="m 222.09017,52.001722 c -5.98109,-1.974887 -7.50457,-10.132646 -7.50457,-10.132646 0,0 7.62826,3.241285 10.1674,2.959157"/><path style="fill:#fff;fill-rule:evenodd;stroke:#000;stroke-width:2;stroke-linecap:butt;stroke-linejoin:miter;stroke-miterlimit:4;stroke-dasharray:none;stroke-opacity:1" id="path4582" d="m 254.04859,45.212377 c 3.49837,-4.683305 2.5511,-9.78028 2.5511,-9.78028 0,0 -5.29427,4.743097 -6.53563,5.250925"/></g><g id="layer4" style="display:inline"><ellipse style="fill:#000;fill-opacity:1;stroke:none;stroke-width:1.5;stroke-linecap:round;stroke-linejoin:round;stroke-miterlimit:4;stroke-dasharray:none;stroke-dashoffset:0;stroke-opacity:1" id="path4615" cx="163.274" cy="112.847" rx="7.642" ry="6.495"/><ellipse style="fill:#000;fill-opacity:1;stroke:none;stroke-width:1.19176972;stroke-linecap:round;stroke-linejoin:round;stroke-miterlimit:4;stroke-dasharray:none;stroke-dashoffset:0;stroke-opacity:1" id="path4617" cx="-26.883" cy="197.302" rx="7.063" ry="5.129" transform="matrix(0.55711695,-0.83043404,0.9107654,0.41292418,0,0)"/><ellipse style="fill:#000;fill-opacity:1;stroke:none;stroke-width:1.410761;stroke-linecap:round;stroke-linejoin:round;stroke-miterlimit:4;stroke-dasharray:none;stroke-dashoffset:0;stroke-opacity:1" id="path4619" cx="168.3" cy="94.622" rx="5.52" ry="6.877"/><ellipse style="fill:#000;fill-opacity:1;stroke:none;stroke-width:1.5;stroke-linecap:round;stroke-linejoin:round;stroke-miterlimit:4;stroke-dasharray:none;stroke-dashoffset:0;stroke-opacity:1" id="path4621" cx="75.603" cy="177.571" rx="7.642" ry="5.858" transform="rotate(-40.895157)"/><ellipse style="fill:#000;fill-opacity:1;stroke:none;stroke-width:1.5;stroke-linecap:round;stroke-linejoin:round;stroke-miterlimit:4;stroke-dasharray:none;stroke-dashoffset:0;stroke-opacity:1" id="path4623" cx="150.694" cy="125.484" rx="6.368" ry="4.967" transform="rotate(-16.847638)"/><ellipse style="fill:#000;fill-opacity:1;stroke:none;stroke-width:1.5;stroke-linecap:round;stroke-linejoin:round;stroke-miterlimit:4;stroke-dasharray:none;stroke-dashoffset:0;stroke-opacity:1" id="path4625" cx="170.806" cy="103.44" rx="7.514" ry="4.967" transform="rotate(-10.739504)"/><ellipse style="fill:#000;fill-opacity:1;stroke:none;stroke-width:1.5;stroke-linecap:round;stroke-linejoin:round;stroke-miterlimit:4;stroke-dasharray:none;stroke-dashoffset:0;stroke-opacity:1" id="path4627" cx="181.724" cy="91.966" rx="5.222" ry="4.203" transform="rotate(-8.3945089)"/><ellipse style="fill:#000;fill-opacity:1;stroke:none;stroke-width:1.5;stroke-linecap:round;stroke-linejoin:round;stroke-miterlimit:4;stroke-dasharray:none;stroke-dashoffset:0;stroke-opacity:1" id="path4629" cx="200.462" cy="60.12" rx="6.241" ry="4.712"/><ellipse style="fill:#000;fill-opacity:1;stroke:none;stroke-width:1.5;stroke-linecap:round;stroke-linejoin:round;stroke-miterlimit:4;stroke-dasharray:none;stroke-dashoffset:0;stroke-opacity:1" id="path4635" cx="207.827" cy="57.402" rx="5.731" ry="4.585"/><ellipse style="fill:#000;fill-opacity:1;stroke:none;stroke-width:1.40936267;stroke-linecap:round;stroke-linejoin:round;stroke-miterlimit:4;stroke-dasharray:none;stroke-dashoffset:0;stroke-opacity:1" id="path4637" cx="23.205" cy="219.186" rx="4.582" ry="5.625" transform="matrix(0.44635294,-0.894857,0.93315118,0.35948417,0,0)"/><ellipse style="fill:#000;fill-opacity:1;stroke:none;stroke-width:1.5;stroke-linecap:round;stroke-linejoin:round;stroke-miterlimit:4;stroke-dasharray:none;stroke-dashoffset:0;stroke-opacity:1" id="path4639" cx="178.739" cy="-149.077" rx="4.075" ry="3.311" transform="rotate(56.958223)"/><ellipse style="fill:#000;fill-opacity:1;stroke:none;stroke-width:1.5;stroke-linecap:round;stroke-linejoin:round;stroke-miterlimit:4;stroke-dasharray:none;stroke-dashoffset:0;stroke-opacity:1" id="path4641" cx="122.982" cy="-200.967" rx="4.84" ry="3.184" transform="rotate(77.265814)"/><ellipse style="fill:#000;fill-opacity:1;stroke:none;stroke-width:1.5;stroke-linecap:round;stroke-linejoin:round;stroke-miterlimit:4;stroke-dasharray:none;stroke-dashoffset:0;stroke-opacity:1" id="path4643" cx="234.77" cy="43.722" rx="3.566" ry="4.075" transform="rotate(9.3011137)"/><circle style="fill:#000;fill-opacity:1;stroke:none;stroke-width:1.5;stroke-linecap:round;stroke-linejoin:round;stroke-miterlimit:4;stroke-dasharray:none;stroke-dashoffset:0;stroke-opacity:1" id="path4645" cx="241.651" cy="10.18" r="3.566" transform="rotate(18.668101)"/><ellipse style="fill:#000;fill-opacity:1;stroke:none;stroke-width:1.5;stroke-linecap:round;stroke-linejoin:round;stroke-miterlimit:4;stroke-dasharray:none;stroke-dashoffset:0;stroke-opacity:1" id="path4647" cx="134.816" cy="202.558" rx="4.075" ry="2.165" transform="rotate(-34.101702)"/><ellipse style="fill:#000;fill-opacity:1;stroke:none;stroke-width:1.5;stroke-linecap:round;stroke-linejoin:round;stroke-miterlimit:4;stroke-dasharray:none;stroke-dashoffset:0;stroke-opacity:1" id="path4649" cx="219.432" cy="93.032" rx="4.33" ry="3.057"/><ellipse style="fill:#000;fill-opacity:1;stroke:none;stroke-width:1.5;stroke-linecap:round;stroke-linejoin:round;stroke-miterlimit:4;stroke-dasharray:none;stroke-dashoffset:0;stroke-opacity:1" id="path4651" cx="229.751" cy="25.425" rx="5.986" ry="3.311" transform="rotate(16.42311)"/><ellipse style="fill:#000;fill-opacity:1;stroke:none;stroke-width:1.5;stroke-linecap:round;stroke-linejoin:round;stroke-miterlimit:4;stroke-dasharray:none;stroke-dashoffset:0;stroke-opacity:1" id="path4657" cx="145.713" cy="172.385" rx="4.458" ry="3.566" transform="rotate(-25.786129)"/><ellipse style="fill:#000;fill-opacity:1;stroke:none;stroke-width:1.5;stroke-linecap:round;stroke-linejoin:round;stroke-miterlimit:4;stroke-dasharray:none;stroke-dashoffset:0;stroke-opacity:1" id="path4659" cx="157.629" cy="158.091" rx="3.693" ry="3.057" transform="rotate(-19.496611)"/><ellipse style="fill:#000;fill-opacity:1;stroke:none;stroke-width:1.5;stroke-linecap:round;stroke-linejoin:round;stroke-miterlimit:4;stroke-dasharray:none;stroke-dashoffset:0;stroke-opacity:1" id="path4661" cx="151.059" cy="158.058" rx="5.858" ry="3.566" transform="rotate(-19.432361)"/><ellipse style="fill:#000;fill-opacity:1;stroke:none;stroke-width:1.5;stroke-linecap:round;stroke-linejoin:round;stroke-miterlimit:4;stroke-dasharray:none;stroke-dashoffset:0;stroke-opacity:1" id="path4663" cx="215.283" cy="-31.779" rx="5.094" ry="4.203" transform="rotate(37.126763)"/><ellipse style="fill:#000;fill-opacity:1;stroke:none;stroke-width:1.5;stroke-linecap:round;stroke-linejoin:round;stroke-miterlimit:4;stroke-dasharray:none;stroke-dashoffset:0;stroke-opacity:1" id="path4665" cx="190.466" cy="110.787" rx="4.84" ry="3.311"/><ellipse style="fill:#000;fill-opacity:1;stroke:none;stroke-width:1.24665308;stroke-linecap:round;stroke-linejoin:round;stroke-miterlimit:4;stroke-dasharray:none;stroke-dashoffset:0;stroke-opacity:1" id="path4667" cx="222.821" cy="1.471" rx="3.991" ry="2.948" transform="matrix(0.85851548,0.51278764,-0.29960092,0.95406461,0,0)"/><ellipse style="fill:#000;fill-opacity:1;stroke:none;stroke-width:1.5;stroke-linecap:round;stroke-linejoin:round;stroke-miterlimit:4;stroke-dasharray:none;stroke-dashoffset:0;stroke-opacity:1" id="path4669" cx="188.804" cy="120.681" rx="4.84" ry="3.948"/><ellipse style="fill:#000;fill-opacity:1;stroke:none;stroke-width:1.5;stroke-linecap:round;stroke-linejoin:round;stroke-miterlimit:4;stroke-dasharray:none;stroke-dashoffset:0;stroke-opacity:1" id="path4671" cx="181.793" cy="121.613" rx="4.33" ry="3.693"/><ellipse style="fill:#000;fill-opacity:1;stroke:none;stroke-width:1.5;stroke-linecap:round;stroke-linejoin:round;stroke-miterlimit:4;stroke-dasharray:none;stroke-dashoffset:0;stroke-opacity:1" id="path4673" cx="175.245" cy="117.814" rx="4.585" ry="3.184"/><ellipse style="fill:#000;fill-opacity:1;stroke:none;stroke-width:1.5;stroke-linecap:round;stroke-linejoin:round;stroke-miterlimit:4;stroke-dasharray:none;stroke-dashoffset:0;stroke-opacity:1" id="path4675" cx="170.151" cy="114.375" rx="4.33" ry="3.693"/><ellipse style="fill:#000;fill-opacity:1;stroke:none;stroke-width:1.5;stroke-linecap:round;stroke-linejoin:round;stroke-miterlimit:4;stroke-dasharray:none;stroke-dashoffset:0;stroke-opacity:1" id="path4756" cx="132.285" cy="186.7" rx="3.602" ry="5.133" transform="rotate(-38.568098)"/></g><g id="layer5" style="display:inline"><ellipse style="fill:#fff;fill-opacity:1;stroke:none;stroke-width:1.76128495;stroke-linecap:round;stroke-linejoin:round;stroke-miterlimit:4;stroke-dasharray:none;stroke-dashoffset:0;stroke-opacity:1" id="path4678" cx="100.008" cy="170.766" rx="5.527" ry="3.366" transform="matrix(0.90773918,-0.41953496,0.43082676,0.90243465,0,0)"/><ellipse style="fill:#fff;fill-opacity:1;stroke:none;stroke-width:1.64386106;stroke-linecap:round;stroke-linejoin:round;stroke-miterlimit:4;stroke-dasharray:none;stroke-dashoffset:0;stroke-opacity:1" id="path4682" cx="134.198" cy="160.275" rx="5.424" ry="5.298" transform="matrix(0.92997286,-0.36762818,0.26709612,0.96366989,0,0)"/><ellipse style="fill:#fff;fill-opacity:1;stroke:none;stroke-width:1.54916072;stroke-linecap:round;stroke-linejoin:round;stroke-miterlimit:4;stroke-dasharray:none;stroke-dashoffset:0;stroke-opacity:1" id="path4684" cx="170.628" cy="100.874" rx="4.323" ry="4.683"/><ellipse style="fill:#fff;fill-opacity:1;stroke:none;stroke-width:1.84876299;stroke-linecap:round;stroke-linejoin:round;stroke-miterlimit:4;stroke-dasharray:none;stroke-dashoffset:0;stroke-opacity:1" id="path4686" cx="171.362" cy="95.259" rx="5.493" ry="5.943"/><ellipse style="fill:#fff;fill-opacity:1;stroke:none;stroke-width:1.64477098;stroke-linecap:round;stroke-linejoin:round;stroke-miterlimit:4;stroke-dasharray:none;stroke-dashoffset:0;stroke-opacity:1" id="path4688" cx="93.157" cy="182.173" rx="6.218" ry="5.181" transform="matrix(0.74643621,-0.66545697,0.5824458,0.81286954,0,0)"/><ellipse style="fill:#fff;fill-opacity:1;stroke:none;stroke-width:1.5;stroke-linecap:round;stroke-linejoin:round;stroke-miterlimit:4;stroke-dasharray:none;stroke-dashoffset:0;stroke-opacity:1" id="path4690" cx="121.472" cy="157.469" rx="6.034" ry="3.692" transform="rotate(-29.23297)"/><ellipse style="fill:#fff;fill-opacity:1;stroke:none;stroke-width:1.66145194;stroke-linecap:round;stroke-linejoin:round;stroke-miterlimit:4;stroke-dasharray:none;stroke-dashoffset:0;stroke-opacity:1" id="path4692" cx="188.599" cy="72.264" rx="5.394" ry="4.52"/><ellipse style="fill:#fff;fill-opacity:1;stroke:none;stroke-width:1.62636173;stroke-linecap:round;stroke-linejoin:round;stroke-miterlimit:4;stroke-dasharray:none;stroke-dashoffset:0;stroke-opacity:1" id="path4694" cx="122.381" cy="172.017" rx="4.604" ry="4.088" transform="matrix(0.79599865,-0.6052984,0.56259859,0.8267302,0,0)"/><ellipse style="fill:#fff;fill-opacity:1;stroke:none;stroke-width:1.90360129;stroke-linecap:round;stroke-linejoin:round;stroke-miterlimit:4;stroke-dasharray:none;stroke-dashoffset:0;stroke-opacity:1" id="path4696" cx="201.538" cy="63.571" rx="5.448" ry="4.143"/><ellipse style="fill:#fff;fill-opacity:1;stroke:none;stroke-width:1.54659534;stroke-linecap:round;stroke-linejoin:round;stroke-miterlimit:4;stroke-dasharray:none;stroke-dashoffset:0;stroke-opacity:1" id="path4714" cx="207.711" cy="60.801" rx="5.361" ry="4.593"/><ellipse style="fill:#fff;fill-opacity:1;stroke:none;stroke-width:1.5;stroke-linecap:round;stroke-linejoin:round;stroke-miterlimit:4;stroke-dasharray:none;stroke-dashoffset:0;stroke-opacity:1" id="path4716" cx="215.684" cy="62.242" rx="5.223" ry="4.413"/><ellipse style="fill:#fff;fill-opacity:1;stroke:none;stroke-width:1.5;stroke-linecap:round;stroke-linejoin:round;stroke-miterlimit:4;stroke-dasharray:none;stroke-dashoffset:0;stroke-opacity:1" id="path4718" cx="219.557" cy="68.366" rx="2.882" ry="3.512"/><ellipse style="fill:#fff;fill-opacity:1;stroke:none;stroke-width:1.5;stroke-linecap:round;stroke-linejoin:round;stroke-miterlimit:4;stroke-dasharray:none;stroke-dashoffset:0;stroke-opacity:1" id="path4720" cx="218.21" cy="73.822" rx="3.332" ry="4.233"/><ellipse style="fill:#fff;fill-opacity:1;stroke:none;stroke-width:1.5;stroke-linecap:round;stroke-linejoin:round;stroke-miterlimit:4;stroke-dasharray:none;stroke-dashoffset:0;stroke-opacity:1" id="path4722" cx="221.988" cy="-71.832" rx="3.512" ry="4.143" transform="rotate(37.281912)"/><ellipse style="fill:#fff;fill-opacity:1;stroke:none;stroke-width:1.5;stroke-linecap:round;stroke-linejoin:round;stroke-miterlimit:4;stroke-dasharray:none;stroke-dashoffset:0;stroke-opacity:1" id="path4724" cx="199.812" cy="127.111" rx="3.062" ry="5.133" transform="rotate(-12.00955)"/><ellipse style="fill:#fff;fill-opacity:1;stroke:none;stroke-width:1.5;stroke-linecap:round;stroke-linejoin:round;stroke-miterlimit:4;stroke-dasharray:none;stroke-dashoffset:0;stroke-opacity:1" id="path4726" cx="220.706" cy="88.442" rx="5.043" ry="3.692"/><ellipse style="fill:#fff;fill-opacity:1;stroke:none;stroke-width:1.76504517;stroke-linecap:round;stroke-linejoin:round;stroke-miterlimit:4;stroke-dasharray:none;stroke-dashoffset:0;stroke-opacity:1" id="path4728" cx="213.073" cy="86.752" rx="4.143" ry="3.242"/><ellipse style="fill:#fff;fill-opacity:1;stroke:none;stroke-width:1.5;stroke-linecap:round;stroke-linejoin:round;stroke-miterlimit:4;stroke-dasharray:none;stroke-dashoffset:0;stroke-opacity:1" id="path4730" cx="176.184" cy="138.278" rx="4.143" ry="2.792" transform="rotate(-15.067942)"/><ellipse style="fill:#fff;fill-opacity:1;stroke:none;stroke-width:1.5;stroke-linecap:round;stroke-linejoin:round;stroke-miterlimit:4;stroke-dasharray:none;stroke-dashoffset:0;stroke-opacity:1" id="path4732" cx="201.084" cy="89.979" rx="4.233" ry="3.692"/><ellipse style="fill:#fff;fill-opacity:1;stroke:none;stroke-width:1.5;stroke-linecap:round;stroke-linejoin:round;stroke-miterlimit:4;stroke-dasharray:none;stroke-dashoffset:0;stroke-opacity:1" id="path4734" cx="153.027" cy="156.214" rx="4.683" ry="3.332" transform="rotate(-20.100029)"/><ellipse style="fill:#fff;fill-opacity:1;stroke:none;stroke-width:1.5;stroke-linecap:round;stroke-linejoin:round;stroke-miterlimit:4;stroke-dasharray:none;stroke-dashoffset:0;stroke-opacity:1" id="path4736" cx="191.707" cy="96.272" rx="4.413" ry="4.053"/><ellipse style="fill:#fff;fill-opacity:1;stroke:none;stroke-width:1.5;stroke-linecap:round;stroke-linejoin:round;stroke-miterlimit:4;stroke-dasharray:none;stroke-dashoffset:0;stroke-opacity:1" id="path4738" cx="59.746" cy="203.523" rx="4.593" ry="3.242" transform="rotate(-45.298195)"/><ellipse style="fill:#fff;fill-opacity:1;stroke:none;stroke-width:1.5;stroke-linecap:round;stroke-linejoin:round;stroke-miterlimit:4;stroke-dasharray:none;stroke-dashoffset:0;stroke-opacity:1" id="path4740" cx="206.245" cy="57.751" rx="5.313" ry="3.152" transform="rotate(13.664176)"/><ellipse style="fill:#fff;fill-opacity:1;stroke:none;stroke-width:1.5;stroke-linecap:round;stroke-linejoin:round;stroke-miterlimit:4;stroke-dasharray:none;stroke-dashoffset:0;stroke-opacity:1" id="path4742" cx="187.227" cy="110.962" rx="4.503" ry="4.143"/><ellipse style="fill:#fff;fill-opacity:1;stroke:none;stroke-width:1.37950611;stroke-linecap:round;stroke-linejoin:round;stroke-miterlimit:4;stroke-dasharray:none;stroke-dashoffset:0;stroke-opacity:1" id="path4744" cx="220.099" cy="-1.083" rx="4.569" ry="3.675" transform="matrix(0.84412004,0.53615422,-0.58835148,0.80860531,0,0)"/><ellipse style="fill:#fff;fill-opacity:1;stroke:none;stroke-width:1.41258276;stroke-linecap:round;stroke-linejoin:round;stroke-miterlimit:4;stroke-dasharray:none;stroke-dashoffset:0;stroke-opacity:1" id="path4750" cx="136.576" cy="199.598" rx="3.967" ry="3.698" transform="matrix(0.85414566,-0.52003384,0.33353202,0.94273877,0,0)"/><ellipse style="fill:#fff;fill-opacity:1;stroke:none;stroke-width:1.62538981;stroke-linecap:round;stroke-linejoin:round;stroke-miterlimit:4;stroke-dasharray:none;stroke-dashoffset:0;stroke-opacity:1" id="path4752" cx="206.255" cy="66.608" rx="5.311" ry="3.384" transform="matrix(0.96787179,0.25144422,-0.33491655,0.94224779,0,0)"/><ellipse style="fill:#fff;fill-opacity:1;stroke:none;stroke-width:1.5;stroke-linecap:round;stroke-linejoin:round;stroke-miterlimit:4;stroke-dasharray:none;stroke-dashoffset:0;stroke-opacity:1" id="path4754" cx="172.007" cy="111.412" rx="4.233" ry="3.692"/></g></svg>